<?xml version="1.0" encoding="utf-8" standalone="no"?>
<!DOCTYPE svg PUBLIC "-//W3C//DTD SVG 1.1//EN"
  "http://www.w3.org/Graphics/SVG/1.1/DTD/svg11.dtd">
<!-- Created with matplotlib (https://matplotlib.org/) -->
<svg height="601.833594pt" version="1.1" viewBox="0 0 1188.223438 601.833594" width="1188.223438pt" xmlns="http://www.w3.org/2000/svg" xmlns:xlink="http://www.w3.org/1999/xlink">
 <defs>
  <style type="text/css">
*{stroke-linecap:butt;stroke-linejoin:round;}
  </style>
 </defs>
 <g id="figure_1">
  <g id="patch_1">
   <path d="M -0 601.833594 
L 1188.223438 601.833594 
L 1188.223438 0 
L -0 0 
z
" style="fill:none;"/>
  </g>
  <g id="axes_1">
   <g id="patch_2">
    <path d="M 65.023438 554.599219 
L 1181.023438 554.599219 
L 1181.023438 10.999219 
L 65.023438 10.999219 
z
" style="fill:#ffffff;"/>
   </g>
   <g id="matplotlib.axis_1">
    <g id="xtick_1">
     <g id="line2d_1">
      <defs>
       <path d="M 0 0 
L 0 3.5 
" id="m688e1f6a38" style="stroke:#000000;stroke-width:0.8;"/>
      </defs>
      <g>
       <use style="stroke:#000000;stroke-width:0.8;" x="115.75071" xlink:href="#m688e1f6a38" y="554.599219"/>
      </g>
     </g>
     <g id="text_1">
      <!-- 0 -->
      <defs>
       <path d="M 31.78125 66.40625 
Q 24.171875 66.40625 20.328125 58.90625 
Q 16.5 51.421875 16.5 36.375 
Q 16.5 21.390625 20.328125 13.890625 
Q 24.171875 6.390625 31.78125 6.390625 
Q 39.453125 6.390625 43.28125 13.890625 
Q 47.125 21.390625 47.125 36.375 
Q 47.125 51.421875 43.28125 58.90625 
Q 39.453125 66.40625 31.78125 66.40625 
z
M 31.78125 74.21875 
Q 44.046875 74.21875 50.515625 64.515625 
Q 56.984375 54.828125 56.984375 36.375 
Q 56.984375 17.96875 50.515625 8.265625 
Q 44.046875 -1.421875 31.78125 -1.421875 
Q 19.53125 -1.421875 13.0625 8.265625 
Q 6.59375 17.96875 6.59375 36.375 
Q 6.59375 54.828125 13.0625 64.515625 
Q 19.53125 74.21875 31.78125 74.21875 
z
" id="DejaVuSans-48"/>
      </defs>
      <g transform="translate(112.56946 569.197656)scale(0.1 -0.1)">
       <use xlink:href="#DejaVuSans-48"/>
      </g>
     </g>
    </g>
    <g id="xtick_2">
     <g id="line2d_2">
      <g>
       <use style="stroke:#000000;stroke-width:0.8;" x="326.237319" xlink:href="#m688e1f6a38" y="554.599219"/>
      </g>
     </g>
     <g id="text_2">
      <!-- 100 -->
      <defs>
       <path d="M 12.40625 8.296875 
L 28.515625 8.296875 
L 28.515625 63.921875 
L 10.984375 60.40625 
L 10.984375 69.390625 
L 28.421875 72.90625 
L 38.28125 72.90625 
L 38.28125 8.296875 
L 54.390625 8.296875 
L 54.390625 0 
L 12.40625 0 
z
" id="DejaVuSans-49"/>
      </defs>
      <g transform="translate(316.693569 569.197656)scale(0.1 -0.1)">
       <use xlink:href="#DejaVuSans-49"/>
       <use x="63.623047" xlink:href="#DejaVuSans-48"/>
       <use x="127.246094" xlink:href="#DejaVuSans-48"/>
      </g>
     </g>
    </g>
    <g id="xtick_3">
     <g id="line2d_3">
      <g>
       <use style="stroke:#000000;stroke-width:0.8;" x="536.723928" xlink:href="#m688e1f6a38" y="554.599219"/>
      </g>
     </g>
     <g id="text_3">
      <!-- 200 -->
      <defs>
       <path d="M 19.1875 8.296875 
L 53.609375 8.296875 
L 53.609375 0 
L 7.328125 0 
L 7.328125 8.296875 
Q 12.9375 14.109375 22.625 23.890625 
Q 32.328125 33.6875 34.8125 36.53125 
Q 39.546875 41.84375 41.421875 45.53125 
Q 43.3125 49.21875 43.3125 52.78125 
Q 43.3125 58.59375 39.234375 62.25 
Q 35.15625 65.921875 28.609375 65.921875 
Q 23.96875 65.921875 18.8125 64.3125 
Q 13.671875 62.703125 7.8125 59.421875 
L 7.8125 69.390625 
Q 13.765625 71.78125 18.9375 73 
Q 24.125 74.21875 28.421875 74.21875 
Q 39.75 74.21875 46.484375 68.546875 
Q 53.21875 62.890625 53.21875 53.421875 
Q 53.21875 48.921875 51.53125 44.890625 
Q 49.859375 40.875 45.40625 35.40625 
Q 44.1875 33.984375 37.640625 27.21875 
Q 31.109375 20.453125 19.1875 8.296875 
z
" id="DejaVuSans-50"/>
      </defs>
      <g transform="translate(527.180178 569.197656)scale(0.1 -0.1)">
       <use xlink:href="#DejaVuSans-50"/>
       <use x="63.623047" xlink:href="#DejaVuSans-48"/>
       <use x="127.246094" xlink:href="#DejaVuSans-48"/>
      </g>
     </g>
    </g>
    <g id="xtick_4">
     <g id="line2d_4">
      <g>
       <use style="stroke:#000000;stroke-width:0.8;" x="747.210537" xlink:href="#m688e1f6a38" y="554.599219"/>
      </g>
     </g>
     <g id="text_4">
      <!-- 300 -->
      <defs>
       <path d="M 40.578125 39.3125 
Q 47.65625 37.796875 51.625 33 
Q 55.609375 28.21875 55.609375 21.1875 
Q 55.609375 10.40625 48.1875 4.484375 
Q 40.765625 -1.421875 27.09375 -1.421875 
Q 22.515625 -1.421875 17.65625 -0.515625 
Q 12.796875 0.390625 7.625 2.203125 
L 7.625 11.71875 
Q 11.71875 9.328125 16.59375 8.109375 
Q 21.484375 6.890625 26.8125 6.890625 
Q 36.078125 6.890625 40.9375 10.546875 
Q 45.796875 14.203125 45.796875 21.1875 
Q 45.796875 27.640625 41.28125 31.265625 
Q 36.765625 34.90625 28.71875 34.90625 
L 20.21875 34.90625 
L 20.21875 43.015625 
L 29.109375 43.015625 
Q 36.375 43.015625 40.234375 45.921875 
Q 44.09375 48.828125 44.09375 54.296875 
Q 44.09375 59.90625 40.109375 62.90625 
Q 36.140625 65.921875 28.71875 65.921875 
Q 24.65625 65.921875 20.015625 65.03125 
Q 15.375 64.15625 9.8125 62.3125 
L 9.8125 71.09375 
Q 15.4375 72.65625 20.34375 73.4375 
Q 25.25 74.21875 29.59375 74.21875 
Q 40.828125 74.21875 47.359375 69.109375 
Q 53.90625 64.015625 53.90625 55.328125 
Q 53.90625 49.265625 50.4375 45.09375 
Q 46.96875 40.921875 40.578125 39.3125 
z
" id="DejaVuSans-51"/>
      </defs>
      <g transform="translate(737.666787 569.197656)scale(0.1 -0.1)">
       <use xlink:href="#DejaVuSans-51"/>
       <use x="63.623047" xlink:href="#DejaVuSans-48"/>
       <use x="127.246094" xlink:href="#DejaVuSans-48"/>
      </g>
     </g>
    </g>
    <g id="xtick_5">
     <g id="line2d_5">
      <g>
       <use style="stroke:#000000;stroke-width:0.8;" x="957.697146" xlink:href="#m688e1f6a38" y="554.599219"/>
      </g>
     </g>
     <g id="text_5">
      <!-- 400 -->
      <defs>
       <path d="M 37.796875 64.3125 
L 12.890625 25.390625 
L 37.796875 25.390625 
z
M 35.203125 72.90625 
L 47.609375 72.90625 
L 47.609375 25.390625 
L 58.015625 25.390625 
L 58.015625 17.1875 
L 47.609375 17.1875 
L 47.609375 0 
L 37.796875 0 
L 37.796875 17.1875 
L 4.890625 17.1875 
L 4.890625 26.703125 
z
" id="DejaVuSans-52"/>
      </defs>
      <g transform="translate(948.153396 569.197656)scale(0.1 -0.1)">
       <use xlink:href="#DejaVuSans-52"/>
       <use x="63.623047" xlink:href="#DejaVuSans-48"/>
       <use x="127.246094" xlink:href="#DejaVuSans-48"/>
      </g>
     </g>
    </g>
    <g id="xtick_6">
     <g id="line2d_6">
      <g>
       <use style="stroke:#000000;stroke-width:0.8;" x="1168.183754" xlink:href="#m688e1f6a38" y="554.599219"/>
      </g>
     </g>
     <g id="text_6">
      <!-- 500 -->
      <defs>
       <path d="M 10.796875 72.90625 
L 49.515625 72.90625 
L 49.515625 64.59375 
L 19.828125 64.59375 
L 19.828125 46.734375 
Q 21.96875 47.46875 24.109375 47.828125 
Q 26.265625 48.1875 28.421875 48.1875 
Q 40.625 48.1875 47.75 41.5 
Q 54.890625 34.8125 54.890625 23.390625 
Q 54.890625 11.625 47.5625 5.09375 
Q 40.234375 -1.421875 26.90625 -1.421875 
Q 22.3125 -1.421875 17.546875 -0.640625 
Q 12.796875 0.140625 7.71875 1.703125 
L 7.71875 11.625 
Q 12.109375 9.234375 16.796875 8.0625 
Q 21.484375 6.890625 26.703125 6.890625 
Q 35.15625 6.890625 40.078125 11.328125 
Q 45.015625 15.765625 45.015625 23.390625 
Q 45.015625 31 40.078125 35.4375 
Q 35.15625 39.890625 26.703125 39.890625 
Q 22.75 39.890625 18.8125 39.015625 
Q 14.890625 38.140625 10.796875 36.28125 
z
" id="DejaVuSans-53"/>
      </defs>
      <g transform="translate(1158.640004 569.197656)scale(0.1 -0.1)">
       <use xlink:href="#DejaVuSans-53"/>
       <use x="63.623047" xlink:href="#DejaVuSans-48"/>
       <use x="127.246094" xlink:href="#DejaVuSans-48"/>
      </g>
     </g>
    </g>
    <g id="text_7">
     <!-- episodes -->
     <defs>
      <path d="M 56.203125 29.59375 
L 56.203125 25.203125 
L 14.890625 25.203125 
Q 15.484375 15.921875 20.484375 11.0625 
Q 25.484375 6.203125 34.421875 6.203125 
Q 39.59375 6.203125 44.453125 7.46875 
Q 49.3125 8.734375 54.109375 11.28125 
L 54.109375 2.78125 
Q 49.265625 0.734375 44.1875 -0.34375 
Q 39.109375 -1.421875 33.890625 -1.421875 
Q 20.796875 -1.421875 13.15625 6.1875 
Q 5.515625 13.8125 5.515625 26.8125 
Q 5.515625 40.234375 12.765625 48.109375 
Q 20.015625 56 32.328125 56 
Q 43.359375 56 49.78125 48.890625 
Q 56.203125 41.796875 56.203125 29.59375 
z
M 47.21875 32.234375 
Q 47.125 39.59375 43.09375 43.984375 
Q 39.0625 48.390625 32.421875 48.390625 
Q 24.90625 48.390625 20.390625 44.140625 
Q 15.875 39.890625 15.1875 32.171875 
z
" id="DejaVuSans-101"/>
      <path d="M 18.109375 8.203125 
L 18.109375 -20.796875 
L 9.078125 -20.796875 
L 9.078125 54.6875 
L 18.109375 54.6875 
L 18.109375 46.390625 
Q 20.953125 51.265625 25.265625 53.625 
Q 29.59375 56 35.59375 56 
Q 45.5625 56 51.78125 48.09375 
Q 58.015625 40.1875 58.015625 27.296875 
Q 58.015625 14.40625 51.78125 6.484375 
Q 45.5625 -1.421875 35.59375 -1.421875 
Q 29.59375 -1.421875 25.265625 0.953125 
Q 20.953125 3.328125 18.109375 8.203125 
z
M 48.6875 27.296875 
Q 48.6875 37.203125 44.609375 42.84375 
Q 40.53125 48.484375 33.40625 48.484375 
Q 26.265625 48.484375 22.1875 42.84375 
Q 18.109375 37.203125 18.109375 27.296875 
Q 18.109375 17.390625 22.1875 11.75 
Q 26.265625 6.109375 33.40625 6.109375 
Q 40.53125 6.109375 44.609375 11.75 
Q 48.6875 17.390625 48.6875 27.296875 
z
" id="DejaVuSans-112"/>
      <path d="M 9.421875 54.6875 
L 18.40625 54.6875 
L 18.40625 0 
L 9.421875 0 
z
M 9.421875 75.984375 
L 18.40625 75.984375 
L 18.40625 64.59375 
L 9.421875 64.59375 
z
" id="DejaVuSans-105"/>
      <path d="M 44.28125 53.078125 
L 44.28125 44.578125 
Q 40.484375 46.53125 36.375 47.5 
Q 32.28125 48.484375 27.875 48.484375 
Q 21.1875 48.484375 17.84375 46.4375 
Q 14.5 44.390625 14.5 40.28125 
Q 14.5 37.15625 16.890625 35.375 
Q 19.28125 33.59375 26.515625 31.984375 
L 29.59375 31.296875 
Q 39.15625 29.25 43.1875 25.515625 
Q 47.21875 21.78125 47.21875 15.09375 
Q 47.21875 7.46875 41.1875 3.015625 
Q 35.15625 -1.421875 24.609375 -1.421875 
Q 20.21875 -1.421875 15.453125 -0.5625 
Q 10.6875 0.296875 5.421875 2 
L 5.421875 11.28125 
Q 10.40625 8.6875 15.234375 7.390625 
Q 20.0625 6.109375 24.8125 6.109375 
Q 31.15625 6.109375 34.5625 8.28125 
Q 37.984375 10.453125 37.984375 14.40625 
Q 37.984375 18.0625 35.515625 20.015625 
Q 33.0625 21.96875 24.703125 23.78125 
L 21.578125 24.515625 
Q 13.234375 26.265625 9.515625 29.90625 
Q 5.8125 33.546875 5.8125 39.890625 
Q 5.8125 47.609375 11.28125 51.796875 
Q 16.75 56 26.8125 56 
Q 31.78125 56 36.171875 55.265625 
Q 40.578125 54.546875 44.28125 53.078125 
z
" id="DejaVuSans-115"/>
      <path d="M 30.609375 48.390625 
Q 23.390625 48.390625 19.1875 42.75 
Q 14.984375 37.109375 14.984375 27.296875 
Q 14.984375 17.484375 19.15625 11.84375 
Q 23.34375 6.203125 30.609375 6.203125 
Q 37.796875 6.203125 41.984375 11.859375 
Q 46.1875 17.53125 46.1875 27.296875 
Q 46.1875 37.015625 41.984375 42.703125 
Q 37.796875 48.390625 30.609375 48.390625 
z
M 30.609375 56 
Q 42.328125 56 49.015625 48.375 
Q 55.71875 40.765625 55.71875 27.296875 
Q 55.71875 13.875 49.015625 6.21875 
Q 42.328125 -1.421875 30.609375 -1.421875 
Q 18.84375 -1.421875 12.171875 6.21875 
Q 5.515625 13.875 5.515625 27.296875 
Q 5.515625 40.765625 12.171875 48.375 
Q 18.84375 56 30.609375 56 
z
" id="DejaVuSans-111"/>
      <path d="M 45.40625 46.390625 
L 45.40625 75.984375 
L 54.390625 75.984375 
L 54.390625 0 
L 45.40625 0 
L 45.40625 8.203125 
Q 42.578125 3.328125 38.25 0.953125 
Q 33.9375 -1.421875 27.875 -1.421875 
Q 17.96875 -1.421875 11.734375 6.484375 
Q 5.515625 14.40625 5.515625 27.296875 
Q 5.515625 40.1875 11.734375 48.09375 
Q 17.96875 56 27.875 56 
Q 33.9375 56 38.25 53.625 
Q 42.578125 51.265625 45.40625 46.390625 
z
M 14.796875 27.296875 
Q 14.796875 17.390625 18.875 11.75 
Q 22.953125 6.109375 30.078125 6.109375 
Q 37.203125 6.109375 41.296875 11.75 
Q 45.40625 17.390625 45.40625 27.296875 
Q 45.40625 37.203125 41.296875 42.84375 
Q 37.203125 48.484375 30.078125 48.484375 
Q 22.953125 48.484375 18.875 42.84375 
Q 14.796875 37.203125 14.796875 27.296875 
z
" id="DejaVuSans-100"/>
     </defs>
     <g transform="translate(578.704687 590.474219)scale(0.2 -0.2)">
      <use xlink:href="#DejaVuSans-101"/>
      <use x="61.523438" xlink:href="#DejaVuSans-112"/>
      <use x="125" xlink:href="#DejaVuSans-105"/>
      <use x="152.783203" xlink:href="#DejaVuSans-115"/>
      <use x="204.882812" xlink:href="#DejaVuSans-111"/>
      <use x="266.064453" xlink:href="#DejaVuSans-100"/>
      <use x="329.541016" xlink:href="#DejaVuSans-101"/>
      <use x="391.064453" xlink:href="#DejaVuSans-115"/>
     </g>
    </g>
   </g>
   <g id="matplotlib.axis_2">
    <g id="ytick_1">
     <g id="line2d_7">
      <defs>
       <path d="M 0 0 
L -3.5 0 
" id="m360d08fdc8" style="stroke:#000000;stroke-width:0.8;"/>
      </defs>
      <g>
       <use style="stroke:#000000;stroke-width:0.8;" x="65.023438" xlink:href="#m360d08fdc8" y="554.599219"/>
      </g>
     </g>
     <g id="text_8">
      <!-- −600 -->
      <defs>
       <path d="M 10.59375 35.5 
L 73.1875 35.5 
L 73.1875 27.203125 
L 10.59375 27.203125 
z
" id="DejaVuSans-8722"/>
       <path d="M 33.015625 40.375 
Q 26.375 40.375 22.484375 35.828125 
Q 18.609375 31.296875 18.609375 23.390625 
Q 18.609375 15.53125 22.484375 10.953125 
Q 26.375 6.390625 33.015625 6.390625 
Q 39.65625 6.390625 43.53125 10.953125 
Q 47.40625 15.53125 47.40625 23.390625 
Q 47.40625 31.296875 43.53125 35.828125 
Q 39.65625 40.375 33.015625 40.375 
z
M 52.59375 71.296875 
L 52.59375 62.3125 
Q 48.875 64.0625 45.09375 64.984375 
Q 41.3125 65.921875 37.59375 65.921875 
Q 27.828125 65.921875 22.671875 59.328125 
Q 17.53125 52.734375 16.796875 39.40625 
Q 19.671875 43.65625 24.015625 45.921875 
Q 28.375 48.1875 33.59375 48.1875 
Q 44.578125 48.1875 50.953125 41.515625 
Q 57.328125 34.859375 57.328125 23.390625 
Q 57.328125 12.15625 50.6875 5.359375 
Q 44.046875 -1.421875 33.015625 -1.421875 
Q 20.359375 -1.421875 13.671875 8.265625 
Q 6.984375 17.96875 6.984375 36.375 
Q 6.984375 53.65625 15.1875 63.9375 
Q 23.390625 74.21875 37.203125 74.21875 
Q 40.921875 74.21875 44.703125 73.484375 
Q 48.484375 72.75 52.59375 71.296875 
z
" id="DejaVuSans-54"/>
      </defs>
      <g transform="translate(30.55625 558.398437)scale(0.1 -0.1)">
       <use xlink:href="#DejaVuSans-8722"/>
       <use x="83.789062" xlink:href="#DejaVuSans-54"/>
       <use x="147.412109" xlink:href="#DejaVuSans-48"/>
       <use x="211.035156" xlink:href="#DejaVuSans-48"/>
      </g>
     </g>
    </g>
    <g id="ytick_2">
     <g id="line2d_8">
      <g>
       <use style="stroke:#000000;stroke-width:0.8;" x="65.023438" xlink:href="#m360d08fdc8" y="494.199219"/>
      </g>
     </g>
     <g id="text_9">
      <!-- −500 -->
      <g transform="translate(30.55625 497.998437)scale(0.1 -0.1)">
       <use xlink:href="#DejaVuSans-8722"/>
       <use x="83.789062" xlink:href="#DejaVuSans-53"/>
       <use x="147.412109" xlink:href="#DejaVuSans-48"/>
       <use x="211.035156" xlink:href="#DejaVuSans-48"/>
      </g>
     </g>
    </g>
    <g id="ytick_3">
     <g id="line2d_9">
      <g>
       <use style="stroke:#000000;stroke-width:0.8;" x="65.023438" xlink:href="#m360d08fdc8" y="433.799219"/>
      </g>
     </g>
     <g id="text_10">
      <!-- −400 -->
      <g transform="translate(30.55625 437.598437)scale(0.1 -0.1)">
       <use xlink:href="#DejaVuSans-8722"/>
       <use x="83.789062" xlink:href="#DejaVuSans-52"/>
       <use x="147.412109" xlink:href="#DejaVuSans-48"/>
       <use x="211.035156" xlink:href="#DejaVuSans-48"/>
      </g>
     </g>
    </g>
    <g id="ytick_4">
     <g id="line2d_10">
      <g>
       <use style="stroke:#000000;stroke-width:0.8;" x="65.023438" xlink:href="#m360d08fdc8" y="373.399219"/>
      </g>
     </g>
     <g id="text_11">
      <!-- −300 -->
      <g transform="translate(30.55625 377.198437)scale(0.1 -0.1)">
       <use xlink:href="#DejaVuSans-8722"/>
       <use x="83.789062" xlink:href="#DejaVuSans-51"/>
       <use x="147.412109" xlink:href="#DejaVuSans-48"/>
       <use x="211.035156" xlink:href="#DejaVuSans-48"/>
      </g>
     </g>
    </g>
    <g id="ytick_5">
     <g id="line2d_11">
      <g>
       <use style="stroke:#000000;stroke-width:0.8;" x="65.023438" xlink:href="#m360d08fdc8" y="312.999219"/>
      </g>
     </g>
     <g id="text_12">
      <!-- −200 -->
      <g transform="translate(30.55625 316.798437)scale(0.1 -0.1)">
       <use xlink:href="#DejaVuSans-8722"/>
       <use x="83.789062" xlink:href="#DejaVuSans-50"/>
       <use x="147.412109" xlink:href="#DejaVuSans-48"/>
       <use x="211.035156" xlink:href="#DejaVuSans-48"/>
      </g>
     </g>
    </g>
    <g id="ytick_6">
     <g id="line2d_12">
      <g>
       <use style="stroke:#000000;stroke-width:0.8;" x="65.023438" xlink:href="#m360d08fdc8" y="252.599219"/>
      </g>
     </g>
     <g id="text_13">
      <!-- −100 -->
      <g transform="translate(30.55625 256.398437)scale(0.1 -0.1)">
       <use xlink:href="#DejaVuSans-8722"/>
       <use x="83.789062" xlink:href="#DejaVuSans-49"/>
       <use x="147.412109" xlink:href="#DejaVuSans-48"/>
       <use x="211.035156" xlink:href="#DejaVuSans-48"/>
      </g>
     </g>
    </g>
    <g id="ytick_7">
     <g id="line2d_13">
      <g>
       <use style="stroke:#000000;stroke-width:0.8;" x="65.023438" xlink:href="#m360d08fdc8" y="192.199219"/>
      </g>
     </g>
     <g id="text_14">
      <!-- 0 -->
      <g transform="translate(51.660938 195.998437)scale(0.1 -0.1)">
       <use xlink:href="#DejaVuSans-48"/>
      </g>
     </g>
    </g>
    <g id="ytick_8">
     <g id="line2d_14">
      <g>
       <use style="stroke:#000000;stroke-width:0.8;" x="65.023438" xlink:href="#m360d08fdc8" y="131.799219"/>
      </g>
     </g>
     <g id="text_15">
      <!-- 100 -->
      <g transform="translate(38.935937 135.598437)scale(0.1 -0.1)">
       <use xlink:href="#DejaVuSans-49"/>
       <use x="63.623047" xlink:href="#DejaVuSans-48"/>
       <use x="127.246094" xlink:href="#DejaVuSans-48"/>
      </g>
     </g>
    </g>
    <g id="ytick_9">
     <g id="line2d_15">
      <g>
       <use style="stroke:#000000;stroke-width:0.8;" x="65.023438" xlink:href="#m360d08fdc8" y="71.399219"/>
      </g>
     </g>
     <g id="text_16">
      <!-- 200 -->
      <g transform="translate(38.935937 75.198437)scale(0.1 -0.1)">
       <use xlink:href="#DejaVuSans-50"/>
       <use x="63.623047" xlink:href="#DejaVuSans-48"/>
       <use x="127.246094" xlink:href="#DejaVuSans-48"/>
      </g>
     </g>
    </g>
    <g id="ytick_10">
     <g id="line2d_16">
      <g>
       <use style="stroke:#000000;stroke-width:0.8;" x="65.023438" xlink:href="#m360d08fdc8" y="10.999219"/>
      </g>
     </g>
     <g id="text_17">
      <!-- 300 -->
      <g transform="translate(38.935937 14.798437)scale(0.1 -0.1)">
       <use xlink:href="#DejaVuSans-51"/>
       <use x="63.623047" xlink:href="#DejaVuSans-48"/>
       <use x="127.246094" xlink:href="#DejaVuSans-48"/>
      </g>
     </g>
    </g>
    <g id="text_18">
     <!-- rewards -->
     <defs>
      <path d="M 41.109375 46.296875 
Q 39.59375 47.171875 37.8125 47.578125 
Q 36.03125 48 33.890625 48 
Q 26.265625 48 22.1875 43.046875 
Q 18.109375 38.09375 18.109375 28.8125 
L 18.109375 0 
L 9.078125 0 
L 9.078125 54.6875 
L 18.109375 54.6875 
L 18.109375 46.1875 
Q 20.953125 51.171875 25.484375 53.578125 
Q 30.03125 56 36.53125 56 
Q 37.453125 56 38.578125 55.875 
Q 39.703125 55.765625 41.0625 55.515625 
z
" id="DejaVuSans-114"/>
      <path d="M 4.203125 54.6875 
L 13.1875 54.6875 
L 24.421875 12.015625 
L 35.59375 54.6875 
L 46.1875 54.6875 
L 57.421875 12.015625 
L 68.609375 54.6875 
L 77.59375 54.6875 
L 63.28125 0 
L 52.6875 0 
L 40.921875 44.828125 
L 29.109375 0 
L 18.5 0 
z
" id="DejaVuSans-119"/>
      <path d="M 34.28125 27.484375 
Q 23.390625 27.484375 19.1875 25 
Q 14.984375 22.515625 14.984375 16.5 
Q 14.984375 11.71875 18.140625 8.90625 
Q 21.296875 6.109375 26.703125 6.109375 
Q 34.1875 6.109375 38.703125 11.40625 
Q 43.21875 16.703125 43.21875 25.484375 
L 43.21875 27.484375 
z
M 52.203125 31.203125 
L 52.203125 0 
L 43.21875 0 
L 43.21875 8.296875 
Q 40.140625 3.328125 35.546875 0.953125 
Q 30.953125 -1.421875 24.3125 -1.421875 
Q 15.921875 -1.421875 10.953125 3.296875 
Q 6 8.015625 6 15.921875 
Q 6 25.140625 12.171875 29.828125 
Q 18.359375 34.515625 30.609375 34.515625 
L 43.21875 34.515625 
L 43.21875 35.40625 
Q 43.21875 41.609375 39.140625 45 
Q 35.0625 48.390625 27.6875 48.390625 
Q 23 48.390625 18.546875 47.265625 
Q 14.109375 46.140625 10.015625 43.890625 
L 10.015625 52.203125 
Q 14.9375 54.109375 19.578125 55.046875 
Q 24.21875 56 28.609375 56 
Q 40.484375 56 46.34375 49.84375 
Q 52.203125 43.703125 52.203125 31.203125 
z
" id="DejaVuSans-97"/>
     </defs>
     <g transform="translate(22.396875 322.638281)rotate(-90)scale(0.2 -0.2)">
      <use xlink:href="#DejaVuSans-114"/>
      <use x="38.863281" xlink:href="#DejaVuSans-101"/>
      <use x="100.386719" xlink:href="#DejaVuSans-119"/>
      <use x="182.173828" xlink:href="#DejaVuSans-97"/>
      <use x="243.453125" xlink:href="#DejaVuSans-114"/>
      <use x="282.816406" xlink:href="#DejaVuSans-100"/>
      <use x="346.292969" xlink:href="#DejaVuSans-115"/>
     </g>
    </g>
   </g>
   <g id="line2d_17">
    <path clip-path="url(#p136c3168e2)" d="M 115.75071 406.73773 
L 117.855576 264.942803 
L 119.960442 270.444918 
L 122.065308 381.668598 
L 124.170175 192.0901 
L 126.275041 290.45545 
L 128.379907 409.394051 
L 130.484773 357.019647 
L 132.589639 196.097635 
L 134.694505 233.517688 
L 136.799371 329.897203 
L 138.904237 240.024084 
L 141.009103 331.123221 
L 143.113969 239.111249 
L 145.218835 300.111799 
L 147.323702 414.29078 
L 149.428568 244.297214 
L 151.533434 386.84671 
L 153.6383 237.37079 
L 155.743166 371.830549 
L 157.848032 231.321735 
L 159.952898 238.758144 
L 162.057764 375.582041 
L 164.16263 266.45357 
L 166.267496 265.302515 
L 168.372362 311.806854 
L 170.477229 196.621337 
L 172.582095 251.650101 
L 174.686961 233.006132 
L 176.791827 314.387336 
L 178.896693 271.602292 
L 181.001559 365.403879 
L 183.106425 241.63874 
L 185.211291 398.779795 
L 187.316157 257.979893 
L 189.421023 232.786043 
L 191.525889 303.568111 
L 193.630755 273.982416 
L 195.735622 266.867219 
L 197.840488 254.904586 
L 199.945354 236.407977 
L 202.05022 242.917616 
L 204.155086 255.228655 
L 206.259952 250.755649 
L 208.364818 302.255141 
L 210.469684 244.10113 
L 212.57455 245.868989 
L 214.679416 267.705048 
L 216.784282 284.517864 
L 218.889149 224.022819 
L 220.994015 438.144379 
L 223.098881 236.013903 
L 225.203747 262.894352 
L 227.308613 281.47219 
L 229.413479 273.621282 
L 231.518345 221.090986 
L 233.623211 237.269368 
L 235.728077 213.381434 
L 237.832943 219.871875 
L 239.937809 268.220349 
L 242.042676 242.885115 
L 244.147542 274.897479 
L 246.252408 281.386469 
L 248.357274 309.99565 
L 250.46214 251.496324 
L 252.567006 344.797164 
L 254.671872 217.695499 
L 256.776738 244.093613 
L 258.881604 255.962938 
L 260.98647 218.576504 
L 263.091336 222.354794 
L 265.196202 245.917172 
L 267.301069 256.315013 
L 269.405935 234.386005 
L 271.510801 234.257435 
L 273.615667 263.869449 
L 275.720533 228.468976 
L 277.825399 246.727067 
L 279.930265 250.178079 
L 282.035131 206.738006 
L 284.139997 205.017695 
L 286.244863 199.970558 
L 288.349729 190.478418 
L 290.454596 244.944756 
L 292.559462 213.762343 
L 294.664328 235.953419 
L 296.769194 229.335306 
L 298.87406 294.12905 
L 300.978926 213.541934 
L 303.083792 271.169461 
L 305.188658 279.651657 
L 307.293524 244.481476 
L 309.39839 225.499312 
L 311.503256 243.010562 
L 313.608123 184.158563 
L 315.712989 282.15617 
L 317.817855 272.670752 
L 319.922721 233.95346 
L 322.027587 302.068795 
L 324.132453 225.575682 
L 326.237319 254.948089 
L 328.342185 244.741885 
L 330.447051 265.240516 
L 332.551917 314.566117 
L 334.656783 232.778263 
L 336.761649 191.863144 
L 338.866516 217.864325 
L 340.971382 222.051824 
L 343.076248 318.699663 
L 345.181114 181.978608 
L 347.28598 253.320239 
L 349.390846 223.567174 
L 351.495712 214.389263 
L 353.600578 237.15773 
L 355.705444 216.022007 
L 357.81031 233.068277 
L 359.915176 238.977977 
L 362.020043 262.346791 
L 364.124909 213.661161 
L 366.229775 276.073472 
L 368.334641 141.946279 
L 370.439507 361.42576 
L 372.544373 243.688029 
L 374.649239 226.473269 
L 376.754105 176.840794 
L 378.858971 112.386915 
L 380.963837 253.504063 
L 383.068703 205.616561 
L 385.17357 234.316538 
L 387.278436 237.720977 
L 389.383302 189.722657 
L 391.488168 230.145824 
L 393.593034 171.771818 
L 395.6979 209.396787 
L 397.802766 189.429882 
L 399.907632 187.977896 
L 402.012498 279.605695 
L 404.117364 229.081385 
L 406.22223 243.230095 
L 408.327096 203.451365 
L 410.431963 217.62597 
L 412.536829 331.713599 
L 414.641695 172.984933 
L 416.746561 165.847756 
L 418.851427 222.14123 
L 420.956293 235.436168 
L 423.061159 334.325301 
L 425.166025 226.448522 
L 427.270891 188.248485 
L 429.375757 218.454404 
L 431.480623 308.198724 
L 433.58549 247.528064 
L 435.690356 299.674 
L 437.795222 375.43234 
L 439.900088 301.627878 
L 442.004954 298.074814 
L 444.10982 234.162376 
L 446.214686 235.999781 
L 448.319552 303.081834 
L 450.424418 154.893274 
L 452.529284 217.651703 
L 454.63415 406.302318 
L 456.739017 200.390506 
L 458.843883 338.383151 
L 460.948749 237.936891 
L 463.053615 407.513494 
L 465.158481 257.844552 
L 467.263347 421.716983 
L 469.368213 231.532878 
L 471.473079 172.670594 
L 473.577945 207.799805 
L 475.682811 278.624399 
L 477.787677 209.571404 
L 479.892543 190.082089 
L 481.99741 226.844803 
L 484.102276 205.621243 
L 486.207142 349.167938 
L 488.312008 167.744253 
L 490.416874 315.181334 
L 492.52174 176.502043 
L 494.626606 221.316919 
L 496.731472 181.065716 
L 498.836338 193.689938 
L 500.941204 194.147057 
L 503.04607 243.478787 
L 505.150937 260.260314 
L 507.255803 261.294114 
L 509.360669 294.555132 
L 511.465535 209.968261 
L 513.570401 325.835086 
L 515.675267 214.924751 
L 517.780133 200.489379 
L 519.884999 218.275521 
L 521.989865 215.445698 
L 524.094731 285.080672 
L 526.199597 316.330987 
L 528.304464 253.680675 
L 530.40933 116.163591 
L 534.619062 193.707265 
L 536.723928 149.578984 
L 538.828794 204.869873 
L 540.93366 198.650634 
L 543.038526 184.923546 
L 545.143392 199.334719 
L 547.248258 333.149982 
L 549.353124 187.90656 
L 551.45799 199.741775 
L 553.562857 380.607963 
L 555.667723 227.242742 
L 557.772589 191.138252 
L 559.877455 389.196448 
L 561.982321 202.850624 
L 564.087187 334.295541 
L 566.192053 348.529392 
L 568.296919 197.823892 
L 570.401785 163.64981 
L 572.506651 249.358848 
L 574.611517 156.326444 
L 576.716384 175.170919 
L 578.82125 142.486556 
L 580.926116 155.117769 
L 583.030982 313.565317 
L 585.135848 183.363617 
L 587.240714 262.695142 
L 589.34558 223.50843 
L 591.450446 248.568402 
L 593.555312 254.556343 
L 595.660178 215.90281 
L 597.765044 199.972666 
L 599.869911 59.072847 
L 601.974777 261.664435 
L 604.079643 217.193698 
L 606.184509 136.507491 
L 608.289375 245.067028 
L 610.394241 184.00818 
L 612.499107 307.116231 
L 614.603973 163.01151 
L 616.708839 397.634264 
L 618.813705 291.554449 
L 620.918571 159.672789 
L 623.023437 288.734123 
L 625.128304 219.631677 
L 627.23317 170.408381 
L 629.338036 296.772045 
L 631.442902 192.843708 
L 633.547768 283.196327 
L 635.652634 197.010299 
L 637.7575 183.114603 
L 639.862366 182.958489 
L 641.967232 222.833192 
L 644.072098 187.712202 
L 646.176964 215.423767 
L 648.281831 293.748178 
L 650.386697 172.795922 
L 652.491563 159.40205 
L 654.596429 155.303904 
L 656.701295 160.664575 
L 658.806161 144.089042 
L 660.911027 212.796637 
L 663.015893 183.242628 
L 665.120759 183.531281 
L 667.225625 276.165943 
L 669.330491 202.020098 
L 671.435358 174.913578 
L 675.64509 350.345779 
L 677.749956 176.365883 
L 679.854822 232.525106 
L 681.959688 320.496026 
L 684.064554 183.867619 
L 686.16942 162.03504 
L 688.274286 192.20019 
L 690.379152 172.43962 
L 692.484018 129.034204 
L 694.588885 187.957352 
L 696.693751 182.295199 
L 698.798617 78.787597 
L 700.903483 98.248993 
L 703.008349 40.58205 
L 705.113215 155.272651 
L 707.218081 162.517758 
L 709.322947 161.62354 
L 711.427813 191.603848 
L 713.532679 167.730218 
L 715.637545 173.73389 
L 717.742411 30.184855 
L 719.847278 208.669562 
L 721.952144 171.73576 
L 724.05701 204.590107 
L 726.161876 206.46549 
L 728.266742 150.753618 
L 730.371608 217.356973 
L 732.476474 123.08966 
L 734.58134 152.074829 
L 736.686206 188.472431 
L 738.791072 160.225529 
L 740.895938 254.712105 
L 743.000805 208.635827 
L 745.105671 137.902175 
L 747.210537 343.022685 
L 749.315403 28.768216 
L 751.420269 136.691056 
L 753.525135 128.482319 
L 755.630001 64.735346 
L 757.734867 151.901311 
L 759.839733 357.073566 
L 761.944599 178.884877 
L 764.049465 193.338559 
L 766.154332 129.526884 
L 768.259198 178.086029 
L 770.364064 159.492652 
L 772.46893 145.54573 
L 774.573796 143.806144 
L 776.678662 137.163308 
L 778.783528 136.811058 
L 780.888394 168.008237 
L 782.99326 170.141281 
L 785.098126 193.628869 
L 787.202992 182.977786 
L 789.307858 142.655938 
L 791.412725 132.861836 
L 793.517591 169.143926 
L 795.622457 154.388129 
L 797.727323 155.74372 
L 799.832189 116.325302 
L 801.937055 323.596658 
L 804.041921 70.78699 
L 806.146787 123.168221 
L 808.251653 139.615082 
L 810.356519 47.48568 
L 812.461385 68.131865 
L 814.566252 190.354855 
L 816.671118 233.570168 
L 818.775984 166.319366 
L 820.88085 114.173869 
L 822.985716 243.091739 
L 825.090582 52.222924 
L 827.195448 51.800386 
L 829.300314 44.585721 
L 831.40518 185.917893 
L 833.510046 127.672879 
L 835.614912 109.240651 
L 837.719779 40.942971 
L 839.824645 132.262858 
L 841.929511 160.485092 
L 844.034377 155.700433 
L 846.139243 21.830985 
L 848.244109 294.421747 
L 850.348975 125.254475 
L 852.453841 96.987099 
L 854.558707 158.485079 
L 856.663573 171.123115 
L 858.768439 313.810122 
L 860.873305 82.565454 
L 862.978172 224.057438 
L 865.083038 32.253297 
L 867.187904 39.808847 
L 869.29277 30.573622 
L 871.397636 28.628152 
L 873.502502 116.714071 
L 875.607368 69.07588 
L 877.712234 215.419739 
L 879.8171 88.200478 
L 881.921966 41.680149 
L 884.026832 75.10007 
L 886.131699 20.731808 
L 888.236565 254.678417 
L 890.341431 231.718733 
L 892.446297 136.617575 
L 894.551163 55.801602 
L 896.656029 39.047478 
L 898.760895 52.891244 
L 900.865761 203.953036 
L 902.970627 198.225622 
L 905.075493 47.582753 
L 907.180359 187.243166 
L 909.285226 20.77126 
L 911.390092 67.953942 
L 913.494958 128.113738 
L 915.599824 98.105129 
L 917.70469 112.553781 
L 919.809556 45.827176 
L 921.914422 51.536189 
L 924.019288 149.49136 
L 926.124154 99.315162 
L 928.22902 53.592803 
L 930.333886 33.665408 
L 932.438752 58.366236 
L 934.543619 183.002059 
L 936.648485 93.677173 
L 938.753351 95.764413 
L 940.858217 52.159315 
L 942.963083 54.237671 
L 945.067949 138.474557 
L 947.172815 76.794442 
L 949.277681 113.819537 
L 951.382547 46.942134 
L 953.487413 253.457634 
L 955.592279 106.24338 
L 957.697146 72.6598 
L 959.802012 151.946168 
L 960.999343 602.833594 
M 962.681965 602.833594 
L 964.011744 16.498311 
L 966.11661 48.362602 
L 968.221476 38.68255 
L 970.326342 161.829199 
L 972.431208 327.729029 
L 974.536074 112.277772 
L 976.64094 307.377873 
L 978.745806 351.926079 
L 980.850673 346.414956 
L 982.955539 35.43087 
L 985.060405 329.193743 
L 987.165271 33.693308 
L 989.270137 27.989488 
L 991.375003 48.590892 
L 993.479869 65.956305 
L 995.584735 51.218513 
L 997.689601 78.318564 
L 999.794467 121.398389 
L 1001.899333 96.454049 
L 1004.004199 193.941395 
L 1006.109066 63.564422 
L 1008.213932 137.449067 
L 1010.318798 67.800576 
L 1012.423664 349.282394 
L 1014.52853 160.389651 
L 1016.633396 74.898535 
L 1018.738262 24.358144 
L 1020.843128 74.193827 
L 1022.947994 45.631444 
L 1025.05286 33.092808 
L 1027.157726 35.294185 
L 1029.262593 22.587738 
L 1031.367459 38.799307 
L 1033.472325 249.382039 
L 1035.577191 275.393798 
L 1037.682057 128.447139 
L 1039.786923 47.742203 
L 1041.891789 81.512039 
L 1043.996655 70.76793 
L 1046.101521 30.74707 
L 1048.206387 59.319297 
L 1050.311253 62.261135 
L 1052.41612 100.574337 
L 1054.520986 294.298 
L 1056.625852 264.845711 
L 1058.730718 181.965495 
L 1060.835584 62.106937 
L 1062.94045 308.992059 
L 1065.045316 48.800359 
L 1067.150182 345.396842 
L 1069.255048 370.045405 
L 1071.359914 40.18841 
L 1073.46478 222.344453 
L 1075.569646 52.354266 
L 1077.674513 41.614865 
L 1079.779379 54.742291 
L 1081.884245 43.516292 
L 1083.989111 376.546316 
L 1086.093977 56.600921 
L 1088.198843 36.834162 
L 1090.303709 28.692748 
L 1092.408575 42.707311 
L 1094.513441 37.116109 
L 1096.618307 46.353454 
L 1098.723173 277.960494 
L 1100.82804 226.951612 
L 1102.932906 42.041693 
L 1105.037772 35.711509 
L 1107.142638 66.552407 
L 1109.247504 214.196891 
L 1111.35237 77.315295 
L 1113.457236 56.609362 
L 1115.562102 40.929379 
L 1117.666968 55.834926 
L 1119.771834 47.332327 
L 1121.8767 26.334632 
L 1123.981567 75.108112 
L 1126.086433 28.150922 
L 1128.191299 66.493292 
L 1130.296165 34.871428 
L 1130.296165 34.871428 
" style="fill:none;stroke:#1f77b4;stroke-linecap:square;stroke-width:1.5;"/>
   </g>
   <g id="line2d_18">
    <path clip-path="url(#p136c3168e2)" d="M 115.75071 438.28665 
L 117.855576 296.248578 
L 119.960442 435.651073 
L 122.065308 285.202937 
L 124.170175 246.022242 
L 126.275041 347.819019 
L 128.379907 275.56597 
L 130.484773 285.774599 
L 132.589639 467.452775 
L 134.694505 231.196051 
L 136.799371 208.944184 
L 138.904237 255.25838 
L 141.009103 259.417046 
L 143.113969 379.46391 
L 145.218835 265.833613 
L 147.323702 301.282176 
L 149.428568 248.700431 
L 151.533434 427.749889 
L 153.6383 226.125372 
L 155.743166 335.189509 
L 157.848032 167.031333 
L 159.952898 265.902838 
L 162.057764 291.481121 
L 164.16263 325.376561 
L 166.267496 448.016258 
L 168.372362 303.458241 
L 170.477229 241.314759 
L 172.582095 242.999251 
L 174.686961 264.714404 
L 176.791827 363.751187 
L 178.896693 354.984278 
L 181.001559 207.947015 
L 183.106425 253.324986 
L 185.211291 254.642654 
L 187.316157 255.196796 
L 189.421023 265.769986 
L 191.525889 176.3626 
L 193.630755 452.388223 
L 195.735622 300.887013 
L 197.840488 261.528713 
L 199.945354 233.789891 
L 202.05022 285.701231 
L 204.155086 310.664752 
L 206.259952 252.858297 
L 208.364818 253.856978 
L 210.469684 277.218671 
L 212.57455 286.800262 
L 214.679416 314.601362 
L 216.784282 225.663974 
L 218.889149 236.881952 
L 220.994015 213.062603 
L 223.098881 271.787338 
L 225.203747 314.819613 
L 227.308613 316.306608 
L 229.413479 307.390217 
L 231.518345 278.283782 
L 233.623211 194.633654 
L 235.728077 242.952442 
L 237.832943 213.613589 
L 239.937809 207.79204 
L 242.042676 205.052707 
L 244.147542 240.220031 
L 246.252408 246.853736 
L 248.357274 291.828627 
L 250.46214 221.317462 
L 252.567006 303.075103 
L 254.671872 259.930886 
L 256.776738 259.881553 
L 258.881604 216.10778 
L 260.98647 265.957315 
L 263.091336 244.457562 
L 265.196202 258.626106 
L 267.301069 263.886775 
L 269.405935 233.119504 
L 271.510801 268.22258 
L 273.615667 352.31498 
L 275.720533 239.7955 
L 277.825399 239.067135 
L 279.930265 345.354335 
L 282.035131 190.752613 
L 284.139997 250.785759 
L 286.244863 243.470005 
L 288.349729 207.832806 
L 290.454596 220.511349 
L 292.559462 238.464084 
L 294.664328 247.822662 
L 296.769194 231.602747 
L 298.87406 241.798251 
L 300.978926 237.541787 
L 303.083792 231.899243 
L 305.188658 305.514395 
L 307.293524 206.89907 
L 309.39839 246.583436 
L 311.503256 176.889618 
L 313.608123 237.849568 
L 315.712989 218.529211 
L 317.817855 220.983652 
L 319.922721 249.43434 
L 322.027587 210.803719 
L 324.132453 207.14001 
L 326.237319 217.904054 
L 328.342185 207.011723 
L 330.447051 245.085168 
L 332.551917 149.199474 
L 334.656783 250.374557 
L 336.761649 197.654979 
L 338.866516 231.406419 
L 340.971382 182.478848 
L 343.076248 204.223276 
L 345.181114 228.021543 
L 347.28598 226.757888 
L 349.390846 209.933354 
L 351.495712 222.024135 
L 353.600578 250.658746 
L 355.705444 170.819848 
L 357.81031 239.682079 
L 359.915176 188.842645 
L 362.020043 239.114757 
L 364.124909 242.628973 
L 366.229775 195.546614 
L 368.334641 264.887493 
L 370.439507 218.853622 
L 372.544373 194.897015 
L 374.649239 244.868869 
L 376.754105 188.289084 
L 378.858971 146.92591 
L 380.963837 210.77194 
L 383.068703 160.687776 
L 385.17357 190.217587 
L 387.278436 215.120481 
L 389.383302 237.697832 
L 391.488168 183.156351 
L 393.593034 176.468702 
L 395.6979 220.53869 
L 397.802766 178.444212 
L 399.907632 236.91376 
L 402.012498 211.874761 
L 404.117364 217.26792 
L 406.22223 171.67112 
L 408.327096 185.748876 
L 410.431963 295.60154 
L 414.641695 188.955172 
L 416.746561 179.7864 
L 418.851427 224.811509 
L 420.956293 205.461551 
L 423.061159 211.647002 
L 425.166025 136.55359 
L 427.270891 204.301933 
L 429.375757 108.107042 
L 431.480623 139.393242 
L 433.58549 195.51269 
L 435.690356 206.333029 
L 437.795222 132.434137 
L 439.900088 123.477315 
L 442.004954 140.012254 
L 444.10982 239.255145 
L 446.214686 168.227679 
L 448.319552 280.346071 
L 450.424418 197.121289 
L 452.529284 210.044011 
L 454.63415 234.255942 
L 456.739017 193.732787 
L 458.843883 233.552886 
L 460.948749 269.003564 
L 463.053615 221.690778 
L 465.158481 220.409644 
L 467.263347 207.439191 
L 469.368213 239.61038 
L 471.473079 178.821357 
L 473.577945 240.909466 
L 475.682811 209.298869 
L 477.787677 132.05923 
L 479.892543 320.907204 
L 481.99741 234.129983 
L 484.102276 344.51557 
L 486.207142 157.806874 
L 488.312008 195.443103 
L 490.416874 250.731393 
L 492.52174 250.229686 
L 494.626606 132.979713 
L 496.731472 106.523015 
L 498.836338 273.384299 
L 500.941204 157.944182 
L 503.04607 250.839856 
L 505.150937 175.199307 
L 507.255803 218.946492 
L 509.360669 190.965038 
L 511.465535 194.333719 
L 513.570401 99.686588 
L 515.675267 230.131547 
L 517.780133 150.221501 
L 519.884999 198.24077 
L 521.989865 178.361093 
L 524.094731 238.115716 
L 526.199597 185.726385 
L 528.304464 258.284548 
L 530.40933 342.85971 
L 532.514196 121.940941 
L 534.619062 234.44251 
L 536.723928 195.619451 
L 538.828794 150.05001 
L 540.93366 135.759448 
L 543.038526 200.606528 
L 545.143392 102.756925 
L 547.248258 158.485852 
L 549.353124 317.411814 
L 551.45799 136.544409 
L 553.562857 194.694752 
L 555.667723 119.900254 
L 557.772589 174.565507 
L 559.877455 181.230274 
L 561.982321 183.795465 
L 564.087187 120.002357 
L 566.192053 218.668175 
L 568.296919 227.01724 
L 570.401785 160.764868 
L 572.506651 316.490839 
L 574.611517 284.174648 
L 576.716384 323.301241 
L 578.82125 126.619634 
L 580.926116 119.5914 
L 583.030982 144.097607 
L 585.135848 395.3482 
L 587.240714 160.634631 
L 589.34558 115.294061 
L 591.450446 170.904655 
L 593.555312 96.706111 
L 595.660178 139.81547 
L 597.765044 195.423346 
L 599.869911 498.459321 
L 601.974777 175.138128 
L 604.079643 122.777089 
L 606.184509 152.846523 
L 608.289375 138.633038 
L 610.394241 212.298369 
L 612.499107 243.788801 
L 614.603973 95.223454 
L 616.708839 223.863357 
L 618.813705 166.842048 
L 620.918571 152.610295 
L 623.023437 211.846822 
L 625.128304 188.748821 
L 627.23317 91.064443 
L 629.338036 122.323464 
L 631.442902 131.575722 
L 633.547768 144.234698 
L 635.652634 149.375693 
L 637.7575 92.120486 
L 639.862366 203.587668 
L 641.967232 62.674103 
L 644.072098 134.455108 
L 646.176964 127.861215 
L 648.281831 176.45721 
L 650.386697 184.882762 
L 652.491563 186.989117 
L 654.596429 87.20463 
L 656.701295 145.497284 
L 658.806161 121.5826 
L 660.911027 216.593661 
L 663.015893 133.087584 
L 665.120759 103.619244 
L 667.225625 120.038654 
L 669.330491 140.596319 
L 671.435358 112.246631 
L 673.540224 31.407228 
L 675.64509 203.575273 
L 677.749956 84.957397 
L 679.854822 226.687125 
L 681.959688 192.779439 
L 684.064554 216.508564 
L 686.16942 127.877652 
L 688.274286 209.912994 
L 690.379152 71.278609 
L 692.484018 186.279668 
L 694.588885 64.065912 
L 696.693751 139.827353 
L 698.798617 286.684529 
L 700.903483 180.32554 
L 703.008349 206.774595 
L 705.113215 142.975242 
L 707.218081 124.27212 
L 709.322947 164.312032 
L 711.427813 138.280776 
L 713.532679 212.522008 
L 715.637545 164.583629 
L 717.742411 21.795579 
L 719.847278 82.426503 
L 721.952144 196.830372 
L 724.05701 163.793614 
L 726.161876 55.079972 
L 728.266742 120.6597 
L 730.371608 119.954193 
L 732.476474 227.857574 
L 734.58134 89.79506 
L 738.791072 142.819171 
L 740.895938 49.678726 
L 743.000805 169.040858 
L 745.105671 115.230707 
L 747.210537 267.357811 
L 749.315403 119.338754 
L 751.420269 122.006103 
L 753.525135 125.558869 
L 755.630001 129.334646 
L 757.734867 50.033227 
L 759.839733 179.568355 
L 761.944599 34.074805 
L 764.049465 286.163798 
L 766.154332 136.994788 
L 768.259198 288.001161 
L 770.364064 56.176335 
L 772.46893 123.654099 
L 774.573796 36.825841 
L 776.678662 31.401772 
L 778.783528 159.450069 
L 780.888394 117.461163 
L 782.99326 131.426053 
L 785.098126 69.803842 
L 787.202992 38.882705 
L 789.307858 74.02555 
L 791.412725 137.171878 
L 793.517591 177.44242 
L 795.622457 82.90943 
L 797.727323 219.991958 
L 799.832189 153.18318 
L 801.937055 223.397195 
L 804.041921 42.179962 
L 806.146787 289.781335 
L 808.251653 218.571423 
L 810.356519 117.306083 
L 812.461385 41.551605 
L 814.566252 220.391996 
L 816.671118 35.731697 
L 818.775984 48.236673 
L 820.88085 294.754286 
L 822.985716 86.638508 
L 825.090582 63.058569 
L 827.195448 41.238048 
L 829.300314 44.709274 
L 831.40518 26.062724 
L 833.510046 44.815086 
L 835.614912 44.035865 
L 837.719779 55.100717 
L 839.824645 51.285098 
L 841.929511 155.761994 
L 844.034377 114.564211 
L 846.139243 91.891642 
L 848.244109 96.451401 
L 850.348975 41.233704 
L 852.453841 49.170738 
L 854.558707 39.717236 
L 856.663573 17.426555 
L 858.768439 47.073351 
L 860.873305 36.806758 
L 862.978172 54.716855 
L 865.083038 125.282932 
L 867.187904 25.001208 
L 869.29277 26.325888 
L 871.397636 38.884028 
L 873.502502 39.333138 
L 875.607368 121.529244 
L 877.712234 316.657924 
L 879.8171 37.468899 
L 881.921966 22.802877 
L 884.026832 23.767989 
L 886.131699 225.773865 
L 888.236565 57.756302 
L 890.341431 112.318658 
L 892.446297 50.125031 
L 894.551163 45.000934 
L 896.656029 29.678053 
L 898.760895 108.80535 
L 900.865761 84.654734 
L 902.970627 128.77415 
L 905.075493 24.007445 
L 907.180359 51.780286 
L 909.285226 94.605583 
L 911.390092 50.541823 
L 913.494958 78.26624 
L 915.599824 49.25731 
L 917.70469 129.003516 
L 919.809556 43.099002 
L 921.914422 50.557805 
L 924.019288 40.865267 
L 926.124154 17.45934 
L 928.22902 58.031297 
L 930.333886 33.95453 
L 932.438752 30.026291 
L 934.543619 37.548615 
L 938.753351 73.371029 
L 938.753351 73.371029 
" style="fill:none;stroke:#ff7f0e;stroke-linecap:square;stroke-width:1.5;"/>
   </g>
   <g id="patch_3">
    <path d="M 65.023438 554.599219 
L 65.023438 10.999219 
" style="fill:none;stroke:#000000;stroke-linecap:square;stroke-linejoin:miter;stroke-width:0.8;"/>
   </g>
   <g id="patch_4">
    <path d="M 1181.023438 554.599219 
L 1181.023438 10.999219 
" style="fill:none;stroke:#000000;stroke-linecap:square;stroke-linejoin:miter;stroke-width:0.8;"/>
   </g>
   <g id="patch_5">
    <path d="M 65.023438 554.599219 
L 1181.023438 554.599219 
" style="fill:none;stroke:#000000;stroke-linecap:square;stroke-linejoin:miter;stroke-width:0.8;"/>
   </g>
   <g id="patch_6">
    <path d="M 65.023438 10.999219 
L 1181.023438 10.999219 
" style="fill:none;stroke:#000000;stroke-linecap:square;stroke-linejoin:miter;stroke-width:0.8;"/>
   </g>
   <g id="legend_1">
    <g id="patch_7">
     <path d="M 72.023438 549.599219 
L 165.690625 549.599219 
Q 167.690625 549.599219 167.690625 547.599219 
L 167.690625 519.242969 
Q 167.690625 517.242969 165.690625 517.242969 
L 72.023438 517.242969 
Q 70.023438 517.242969 70.023438 519.242969 
L 70.023438 547.599219 
Q 70.023438 549.599219 72.023438 549.599219 
z
" style="fill:#ffffff;opacity:0.8;stroke:#cccccc;stroke-linejoin:miter;"/>
    </g>
    <g id="line2d_19">
     <path d="M 74.023438 525.341406 
L 94.023438 525.341406 
" style="fill:none;stroke:#1f77b4;stroke-linecap:square;stroke-width:1.5;"/>
    </g>
    <g id="line2d_20"/>
    <g id="text_19">
     <!-- Simple DQN -->
     <defs>
      <path d="M 53.515625 70.515625 
L 53.515625 60.890625 
Q 47.90625 63.578125 42.921875 64.890625 
Q 37.9375 66.21875 33.296875 66.21875 
Q 25.25 66.21875 20.875 63.09375 
Q 16.5 59.96875 16.5 54.203125 
Q 16.5 49.359375 19.40625 46.890625 
Q 22.3125 44.4375 30.421875 42.921875 
L 36.375 41.703125 
Q 47.40625 39.59375 52.65625 34.296875 
Q 57.90625 29 57.90625 20.125 
Q 57.90625 9.515625 50.796875 4.046875 
Q 43.703125 -1.421875 29.984375 -1.421875 
Q 24.8125 -1.421875 18.96875 -0.25 
Q 13.140625 0.921875 6.890625 3.21875 
L 6.890625 13.375 
Q 12.890625 10.015625 18.65625 8.296875 
Q 24.421875 6.59375 29.984375 6.59375 
Q 38.421875 6.59375 43.015625 9.90625 
Q 47.609375 13.234375 47.609375 19.390625 
Q 47.609375 24.75 44.3125 27.78125 
Q 41.015625 30.8125 33.5 32.328125 
L 27.484375 33.5 
Q 16.453125 35.6875 11.515625 40.375 
Q 6.59375 45.0625 6.59375 53.421875 
Q 6.59375 63.09375 13.40625 68.65625 
Q 20.21875 74.21875 32.171875 74.21875 
Q 37.3125 74.21875 42.625 73.28125 
Q 47.953125 72.359375 53.515625 70.515625 
z
" id="DejaVuSans-83"/>
      <path d="M 52 44.1875 
Q 55.375 50.25 60.0625 53.125 
Q 64.75 56 71.09375 56 
Q 79.640625 56 84.28125 50.015625 
Q 88.921875 44.046875 88.921875 33.015625 
L 88.921875 0 
L 79.890625 0 
L 79.890625 32.71875 
Q 79.890625 40.578125 77.09375 44.375 
Q 74.3125 48.1875 68.609375 48.1875 
Q 61.625 48.1875 57.5625 43.546875 
Q 53.515625 38.921875 53.515625 30.90625 
L 53.515625 0 
L 44.484375 0 
L 44.484375 32.71875 
Q 44.484375 40.625 41.703125 44.40625 
Q 38.921875 48.1875 33.109375 48.1875 
Q 26.21875 48.1875 22.15625 43.53125 
Q 18.109375 38.875 18.109375 30.90625 
L 18.109375 0 
L 9.078125 0 
L 9.078125 54.6875 
L 18.109375 54.6875 
L 18.109375 46.1875 
Q 21.1875 51.21875 25.484375 53.609375 
Q 29.78125 56 35.6875 56 
Q 41.65625 56 45.828125 52.96875 
Q 50 49.953125 52 44.1875 
z
" id="DejaVuSans-109"/>
      <path d="M 9.421875 75.984375 
L 18.40625 75.984375 
L 18.40625 0 
L 9.421875 0 
z
" id="DejaVuSans-108"/>
      <path id="DejaVuSans-32"/>
      <path d="M 19.671875 64.796875 
L 19.671875 8.109375 
L 31.59375 8.109375 
Q 46.6875 8.109375 53.6875 14.9375 
Q 60.6875 21.78125 60.6875 36.53125 
Q 60.6875 51.171875 53.6875 57.984375 
Q 46.6875 64.796875 31.59375 64.796875 
z
M 9.8125 72.90625 
L 30.078125 72.90625 
Q 51.265625 72.90625 61.171875 64.09375 
Q 71.09375 55.28125 71.09375 36.53125 
Q 71.09375 17.671875 61.125 8.828125 
Q 51.171875 0 30.078125 0 
L 9.8125 0 
z
" id="DejaVuSans-68"/>
      <path d="M 39.40625 66.21875 
Q 28.65625 66.21875 22.328125 58.203125 
Q 16.015625 50.203125 16.015625 36.375 
Q 16.015625 22.609375 22.328125 14.59375 
Q 28.65625 6.59375 39.40625 6.59375 
Q 50.140625 6.59375 56.421875 14.59375 
Q 62.703125 22.609375 62.703125 36.375 
Q 62.703125 50.203125 56.421875 58.203125 
Q 50.140625 66.21875 39.40625 66.21875 
z
M 53.21875 1.3125 
L 66.21875 -12.890625 
L 54.296875 -12.890625 
L 43.5 -1.21875 
Q 41.890625 -1.3125 41.03125 -1.359375 
Q 40.1875 -1.421875 39.40625 -1.421875 
Q 24.03125 -1.421875 14.8125 8.859375 
Q 5.609375 19.140625 5.609375 36.375 
Q 5.609375 53.65625 14.8125 63.9375 
Q 24.03125 74.21875 39.40625 74.21875 
Q 54.734375 74.21875 63.90625 63.9375 
Q 73.09375 53.65625 73.09375 36.375 
Q 73.09375 23.6875 67.984375 14.640625 
Q 62.890625 5.609375 53.21875 1.3125 
z
" id="DejaVuSans-81"/>
      <path d="M 9.8125 72.90625 
L 23.09375 72.90625 
L 55.421875 11.921875 
L 55.421875 72.90625 
L 64.984375 72.90625 
L 64.984375 0 
L 51.703125 0 
L 19.390625 60.984375 
L 19.390625 0 
L 9.8125 0 
z
" id="DejaVuSans-78"/>
     </defs>
     <g transform="translate(102.023438 528.841406)scale(0.1 -0.1)">
      <use xlink:href="#DejaVuSans-83"/>
      <use x="63.476562" xlink:href="#DejaVuSans-105"/>
      <use x="91.259766" xlink:href="#DejaVuSans-109"/>
      <use x="188.671875" xlink:href="#DejaVuSans-112"/>
      <use x="252.148438" xlink:href="#DejaVuSans-108"/>
      <use x="279.931641" xlink:href="#DejaVuSans-101"/>
      <use x="341.455078" xlink:href="#DejaVuSans-32"/>
      <use x="373.242188" xlink:href="#DejaVuSans-68"/>
      <use x="450.244141" xlink:href="#DejaVuSans-81"/>
      <use x="528.955078" xlink:href="#DejaVuSans-78"/>
     </g>
    </g>
    <g id="line2d_21">
     <path d="M 74.023438 540.019531 
L 94.023438 540.019531 
" style="fill:none;stroke:#ff7f0e;stroke-linecap:square;stroke-width:1.5;"/>
    </g>
    <g id="line2d_22"/>
    <g id="text_20">
     <!-- Double DQN -->
     <defs>
      <path d="M 8.5 21.578125 
L 8.5 54.6875 
L 17.484375 54.6875 
L 17.484375 21.921875 
Q 17.484375 14.15625 20.5 10.265625 
Q 23.53125 6.390625 29.59375 6.390625 
Q 36.859375 6.390625 41.078125 11.03125 
Q 45.3125 15.671875 45.3125 23.6875 
L 45.3125 54.6875 
L 54.296875 54.6875 
L 54.296875 0 
L 45.3125 0 
L 45.3125 8.40625 
Q 42.046875 3.421875 37.71875 1 
Q 33.40625 -1.421875 27.6875 -1.421875 
Q 18.265625 -1.421875 13.375 4.4375 
Q 8.5 10.296875 8.5 21.578125 
z
M 31.109375 56 
z
" id="DejaVuSans-117"/>
      <path d="M 48.6875 27.296875 
Q 48.6875 37.203125 44.609375 42.84375 
Q 40.53125 48.484375 33.40625 48.484375 
Q 26.265625 48.484375 22.1875 42.84375 
Q 18.109375 37.203125 18.109375 27.296875 
Q 18.109375 17.390625 22.1875 11.75 
Q 26.265625 6.109375 33.40625 6.109375 
Q 40.53125 6.109375 44.609375 11.75 
Q 48.6875 17.390625 48.6875 27.296875 
z
M 18.109375 46.390625 
Q 20.953125 51.265625 25.265625 53.625 
Q 29.59375 56 35.59375 56 
Q 45.5625 56 51.78125 48.09375 
Q 58.015625 40.1875 58.015625 27.296875 
Q 58.015625 14.40625 51.78125 6.484375 
Q 45.5625 -1.421875 35.59375 -1.421875 
Q 29.59375 -1.421875 25.265625 0.953125 
Q 20.953125 3.328125 18.109375 8.203125 
L 18.109375 0 
L 9.078125 0 
L 9.078125 75.984375 
L 18.109375 75.984375 
z
" id="DejaVuSans-98"/>
     </defs>
     <g transform="translate(102.023438 543.519531)scale(0.1 -0.1)">
      <use xlink:href="#DejaVuSans-68"/>
      <use x="77.001953" xlink:href="#DejaVuSans-111"/>
      <use x="138.183594" xlink:href="#DejaVuSans-117"/>
      <use x="201.5625" xlink:href="#DejaVuSans-98"/>
      <use x="265.039062" xlink:href="#DejaVuSans-108"/>
      <use x="292.822266" xlink:href="#DejaVuSans-101"/>
      <use x="354.345703" xlink:href="#DejaVuSans-32"/>
      <use x="386.132812" xlink:href="#DejaVuSans-68"/>
      <use x="463.134766" xlink:href="#DejaVuSans-81"/>
      <use x="541.845703" xlink:href="#DejaVuSans-78"/>
     </g>
    </g>
   </g>
  </g>
 </g>
 <defs>
  <clipPath id="p136c3168e2">
   <rect height="543.6" width="1116" x="65.023438" y="10.999219"/>
  </clipPath>
 </defs>
</svg>
